<svg width="24" height="24" viewBox="0 0 24 24" fill="none" xmlns="http://www.w3.org/2000/svg">
<path d="M14 11H21V6H14V11ZM17.5 9.75L15 8V7L17.5 8.75L20 7V8L17.5 9.75ZM2 21C1.45 21 0.979333 20.8043 0.588 20.413C0.196667 20.0217 0.000666667 19.5507 0 19V5C0 4.45 0.196 3.97933 0.588 3.588C0.98 3.19667 1.45067 3.00067 2 3H22C22.55 3 23.021 3.196 23.413 3.588C23.805 3.98 24.0007 4.45067 24 5V19C24 19.55 23.8043 20.021 23.413 20.413C23.0217 20.805 22.5507 21.0007 22 21H2ZM15.9 19H22V5H2V19H2.1C2.8 17.75 3.76667 16.771 5 16.063C6.23333 15.355 7.56667 15.0007 9 15C10.4333 14.9993 11.7667 15.3537 13 16.063C14.2333 16.7723 15.2 17.7513 15.9 19ZM9 14C9.83333 14 10.5417 13.7083 11.125 13.125C11.7083 12.5417 12 11.8333 12 11C12 10.1667 11.7083 9.45833 11.125 8.875C10.5417 8.29167 9.83333 8 9 8C8.16667 8 7.45833 8.29167 6.875 8.875C6.29167 9.45833 6 10.1667 6 11C6 11.8333 6.29167 12.5417 6.875 13.125C7.45833 13.7083 8.16667 14 9 14ZM4.55 19H13.45C12.8833 18.3667 12.2123 17.875 11.437 17.525C10.6617 17.175 9.84933 17 9 17C8.15067 17 7.34233 17.175 6.575 17.525C5.80767 17.875 5.13267 18.3667 4.55 19ZM9 12C8.71667 12 8.47933 11.904 8.288 11.712C8.09667 11.52 8.00067 11.2827 8 11C7.99933 10.7173 8.09533 10.48 8.288 10.288C8.48067 10.096 8.718 10 9 10C9.282 10 9.51967 10.096 9.713 10.288C9.90633 10.48 10.002 10.7173 10 11C9.998 11.2827 9.902 11.5203 9.712 11.713C9.522 11.9057 9.28467 12.0013 9 12Z" fill="#686970"/>
</svg>
