<svg width="24" height="24" viewBox="0 0 24 24" fill="none" xmlns="http://www.w3.org/2000/svg">
<path d="M3.5 4.25V20.5H5V6.5H19.728C19.9281 6.4928 20.1175 6.40826 20.2565 6.26418C20.3955 6.12009 20.4732 5.9277 20.4732 5.7275C20.4732 5.5273 20.3955 5.33491 20.2565 5.19082C20.1175 5.04674 19.9281 4.9622 19.728 4.955H5V4.205C5 4.01802 4.92572 3.8387 4.79351 3.70649C4.6613 3.57428 4.48198 3.5 4.295 3.5H4.25C4.05109 3.5 3.86032 3.57902 3.71967 3.71967C3.57902 3.86032 3.5 4.05109 3.5 4.25ZM22 5.728C22.0002 6.09975 21.9092 6.46588 21.7348 6.79421C21.5605 7.12253 21.3081 7.40301 21 7.611V15.25C21 16.2446 20.6049 17.1984 19.9017 17.9017C19.1984 18.6049 18.2446 19 17.25 19H8.75C7.93838 19.0015 7.14843 18.7381 6.5 18.25V20.75C6.5 21.44 5.94 22 5.25 22H3.25C2.56 22 2 21.44 2 20.75V4.25C2 3.65326 2.23705 3.08097 2.65901 2.65901C3.08097 2.23705 3.65326 2 4.25 2H4.295C5.249 2 6.062 2.606 6.369 3.455H19.728C20.0265 3.45474 20.3222 3.51336 20.598 3.62751C20.8738 3.74165 21.1244 3.90909 21.3355 4.12022C21.5465 4.33135 21.7139 4.58204 21.8279 4.85792C21.9419 5.13381 22.0004 5.42948 22 5.728ZM6.5 8V15.25C6.5 15.8467 6.73705 16.419 7.15901 16.841C7.58097 17.2629 8.15326 17.5 8.75 17.5H17.25C17.8467 17.5 18.419 17.2629 18.841 16.841C19.2629 16.419 19.5 15.8467 19.5 15.25V8H6.5ZM9.5 12.46C9.49999 12.3156 9.53127 12.1728 9.59169 12.0416C9.65211 11.9104 9.74023 11.7939 9.85 11.7L12.675 9.28C12.7656 9.20254 12.8808 9.15997 13 9.15997C13.1192 9.15997 13.2344 9.20254 13.325 9.28L16.151 11.7C16.2606 11.794 16.3485 11.9106 16.4088 12.0418C16.469 12.173 16.5001 12.3156 16.5 12.46V15.5C16.5 15.6326 16.4473 15.7598 16.3536 15.8536C16.2598 15.9473 16.1326 16 16 16H14.25C14.1837 16 14.1201 15.9737 14.0732 15.9268C14.0263 15.8799 14 15.8163 14 15.75V14.5C14 14.3674 13.9473 14.2402 13.8536 14.1464C13.7598 14.0527 13.6326 14 13.5 14H12.5C12.3674 14 12.2402 14.0527 12.1464 14.1464C12.0527 14.2402 12 14.3674 12 14.5V15.75C12 15.8163 11.9737 15.8799 11.9268 15.9268C11.8799 15.9737 11.8163 16 11.75 16H10C9.86739 16 9.74021 15.9473 9.64645 15.8536C9.55268 15.7598 9.5 15.6326 9.5 15.5V12.46Z" fill="#686970"/>
</svg>
